<?xml version="1.0" encoding="iso-8859-1"?>
<!-- Generator: Adobe Illustrator 19.0.0, SVG Export Plug-In . SVG Version: 6.00 Build 0)  -->
<svg version="1.1" id="Layer_1" xmlns="http://www.w3.org/2000/svg" xmlns:xlink="http://www.w3.org/1999/xlink" x="0px" y="0px"
	 viewBox="0 0 512 512" style="enable-background:new 0 0 512 512;" xml:space="preserve">
<path style="fill:#EEBF70;" d="M458.309,256.17c14.304-15.151,23.09-35.567,23.09-58.049c0-44.635-34.568-81.197-78.394-84.373
	l-0.002,0.002c2.114-6.936,3.262-14.294,3.262-21.921c0-41.495-33.638-75.133-75.133-75.133C289.638,16.696,256,50.334,256,91.828
	c0-41.494-33.638-75.133-75.133-75.133c-41.495,0-75.133,33.638-75.133,75.133c0,7.628,1.149,14.985,3.262,21.921l-0.002-0.002
	c-43.826,3.177-78.394,39.739-78.394,84.374c0,22.481,8.785,42.898,23.09,58.049l-0.188-0.174
	c-14.204,15.132-22.902,35.491-22.902,57.882c0,44.641,34.583,81.179,78.415,84.349l-0.033,0.021
	c-2.113,6.935-3.249,14.297-3.249,21.923c0,41.495,33.638,75.133,75.133,75.133C222.362,495.304,256,461.666,256,420.172
	c0,41.494,33.638,75.133,75.133,75.133c41.495,0,75.133-33.638,75.133-75.133c0-7.627-1.136-14.987-3.249-21.922l-0.033-0.021
	c43.832-3.17,78.415-39.708,78.415-84.349c0-22.391-8.698-42.75-22.901-57.882L458.309,256.17z"/>
<path style="fill:#E79C25;" d="M458.309,256.17c14.304-15.151,23.09-35.567,23.09-58.049c0-44.635-34.568-81.197-78.394-84.373
	l-0.002,0.002c2.114-6.936,3.262-14.294,3.262-21.921c0-41.495-33.638-75.133-75.133-75.133C289.638,16.696,256,50.334,256,91.828
	v328.342c0,41.495,33.638,75.134,75.133,75.134c41.495,0,75.133-33.638,75.133-75.133c0-7.627-1.136-14.987-3.249-21.922
	l-0.033-0.021c43.832-3.17,78.415-39.708,78.415-84.349c0-22.391-8.698-42.75-22.901-57.882L458.309,256.17z"/>
<path style="fill:#F3D49D;" d="M498.095,198.122c0-25.762-9.68-50.313-27.257-69.131c-13.197-14.129-29.915-24.04-48.274-28.848
	c0.253-2.749,0.397-5.521,0.397-8.313C422.962,41.194,381.768,0,331.133,0C300.099,0,272.631,15.49,256,39.129
	C239.369,15.49,211.901,0,180.867,0c-50.635,0-91.828,41.194-91.828,91.828c0,2.794,0.145,5.565,0.397,8.313
	c-18.359,4.808-35.075,14.719-48.274,28.848c-17.578,18.819-27.257,43.37-27.257,69.132c0,21.486,6.731,41.427,18.185,57.837
	c-11.804,16.895-18.185,37.001-18.185,57.919c0,46.95,32.11,86.538,75.522,97.967c-0.249,2.761-0.39,5.537-0.39,8.327
	c0,50.635,41.194,91.828,91.828,91.828c31.035,0,58.503-15.49,75.133-39.129C272.631,496.51,300.099,512,331.133,512
	c50.635,0,91.828-41.194,91.828-91.828c0-2.788-0.14-5.565-0.39-8.327c43.412-11.429,75.522-51.016,75.522-97.967
	c0-20.919-6.382-41.025-18.185-57.919C491.365,239.549,498.095,219.608,498.095,198.122z M396.801,381.779
	c-19.137,0-37.486-8.141-50.343-22.337L321.71,381.86c17.494,19.314,41.809,31.107,67.616,33.028
	c0.157,1.751,0.245,3.513,0.245,5.284c0,32.223-26.216,58.437-58.437,58.437s-58.438-26.214-58.438-58.437V303.181h-33.391v116.991
	c0,32.223-26.215,58.437-58.437,58.437s-58.437-26.216-58.437-58.437c0-1.771,0.088-3.532,0.245-5.284
	c25.807-1.92,50.123-13.714,67.616-33.028l-24.749-22.417c-12.857,14.195-31.206,22.337-50.343,22.337
	c-37.442,0-67.902-30.461-67.902-67.901c0-11.892,3.075-23.392,8.834-33.519c16.639,11.985,37.042,19.055,59.068,19.055v-33.391
	c-37.442,0-67.902-30.461-67.902-67.901c0-31.399,21.722-58.325,51.228-65.815c10.151,20.567,27.843,37.177,50.093,45.523
	l11.728-31.264c-22.678-8.507-37.916-30.504-37.916-54.737c0-32.223,26.216-58.437,58.437-58.437s58.437,26.216,58.437,58.437
	v116.99h33.391V91.828c0-32.223,26.216-58.437,58.437-58.437s58.437,26.214,58.437,58.437c0,24.232-15.238,46.229-37.916,54.737
	l11.728,31.264c22.251-8.347,39.942-24.957,50.094-45.523c29.506,7.491,51.228,34.416,51.228,65.815
	c0,37.441-30.461,67.901-67.902,67.901v33.391c22.026,0,42.429-7.071,59.068-19.055c5.759,10.128,8.834,21.628,8.834,33.519
	C464.703,351.32,434.243,381.779,396.801,381.779z"/>
<path style="fill:#EEBF70;" d="M498.095,198.122c0-25.762-9.68-50.313-27.257-69.131c-13.197-14.129-29.915-24.04-48.274-28.848
	c0.253-2.749,0.397-5.521,0.397-8.313C422.962,41.194,381.768,0,331.133,0C300.099,0,272.631,15.49,256,39.129v169.69h16.696V91.828
	c0-32.223,26.216-58.437,58.437-58.437s58.437,26.214,58.437,58.437c0,24.232-15.238,46.229-37.916,54.737l11.728,31.264
	c22.251-8.347,39.942-24.957,50.094-45.523c29.506,7.491,51.228,34.416,51.228,65.815c0,37.441-30.461,67.901-67.902,67.901v33.391
	c22.026,0,42.429-7.071,59.068-19.055c5.759,10.128,8.834,21.628,8.834,33.519c0,37.442-30.461,67.901-67.902,67.901
	c-19.137,0-37.486-8.141-50.343-22.337L321.71,381.86c17.494,19.314,41.809,31.107,67.616,33.028
	c0.157,1.751,0.245,3.513,0.245,5.284c0,32.223-26.216,58.437-58.437,58.437s-58.438-26.214-58.438-58.437V303.181H256v169.69
	C272.631,496.51,300.099,512,331.133,512c50.635,0,91.828-41.194,91.828-91.828c0-2.788-0.14-5.565-0.39-8.327
	c43.412-11.429,75.522-51.016,75.522-97.967c0-20.919-6.382-41.025-18.185-57.919C491.365,239.549,498.095,219.608,498.095,198.122z
	"/>
<path style="fill:#B5E45F;" d="M343.088,225.515v-33.391h-23.211v-23.211h-33.391v23.211h-13.789v-23.211h-33.391v23.211h-13.789
	v-23.211h-33.391v23.211h-23.211v33.391h23.211v13.79h-23.211v33.391h23.211v13.789h-23.211v33.391h23.211v23.211h33.391v-23.211
	h13.789v23.211h33.391v-23.211h13.789v23.211h33.391v-23.211h23.211v-33.391h-23.211v-13.789h23.211v-33.391h-23.211v-13.79H343.088
	z"/>
<g>
	<path style="fill:#7DBB4E;" d="M343.088,225.515v-33.391h-23.211v-23.211h-33.391v23.211h-13.789v-23.211H256v174.175h16.696
		v-23.211h13.789v23.211h33.391v-23.211h23.211v-33.391h-23.211v-13.788h23.211v-33.391h-23.211v-13.79H343.088z"/>
	<rect x="225.514" y="225.514" style="fill:#7DBB4E;" width="60.969" height="60.969"/>
</g>
<rect x="256" y="225.514" style="fill:#588D3F;" width="30.485" height="60.969"/>
<g>
</g>
<g>
</g>
<g>
</g>
<g>
</g>
<g>
</g>
<g>
</g>
<g>
</g>
<g>
</g>
<g>
</g>
<g>
</g>
<g>
</g>
<g>
</g>
<g>
</g>
<g>
</g>
<g>
</g>
</svg>
